{
  "accessors": [
    {
      "bufferView": 2,
      "componentType": 5126,
      "count": 856,
      "max": [
        0.2812267541885376,
        0.281969279050827,
        0.10075270384550095
      ],
      "min": [
        -0.2827261984348297,
        -0.2819836735725403,
        -0.18973450362682343
      ],
      "type": "VEC3"
    },
    {
      "bufferView": 2,
      "byteOffset": 10272,
      "componentType": 5126,
      "count": 856,
      "max": [
        1.0,
        0.9976547360420227,
        1.0
      ],
      "min": [
        -1.0,
        -0.9976547360420227,
        -1.0
      ],
      "type": "VEC3"
    },
    {
      "bufferView": 1,
      "componentType": 5126,
      "count": 856,
      "max": [
        0.9926637411117554,
        0.9925923943519592
      ],
      "min": [
        0.010015636682510376,
        0.007989352568984032
      ],
      "type": "VEC2"
    },
    {
      "bufferView": 1,
      "byteOffset": 6848,
      "componentType": 5126,
      "count": 856,
      "max": [
        0.9926637411117554,
        0.9925923943519592
      ],
      "min": [
        0.010015636682510376,
        0.007989352568984032
      ],
      "type": "VEC2"
    },
    {
      "bufferView": 0,
      "componentType": 5125,
      "count": 3426,
      "type": "SCALAR"
    },
    {
      "bufferView": 2,
      "byteOffset": 20544,
      "componentType": 5126,
      "count": 32,
      "max": [
        0.17441147565841675,
        0.37102195620536804,
        0.3407440781593323
      ],
      "min": [
        -0.1760200411081314,
        0.1763843297958374,
        -0.17713159322738647
      ],
      "type": "VEC3"
    },
    {
      "bufferView": 2,
      "byteOffset": 20928,
      "componentType": 5126,
      "count": 32,
      "max": [
        0.5840246677398682,
        0.6695126891136169,
        0.6769881844520569
      ],
      "min": [
        -0.5840247273445129,
        -0.9462491273880005,
        -0.6769882440567017
      ],
      "type": "VEC3"
    },
    {
      "bufferView": 1,
      "byteOffset": 13696,
      "componentType": 5126,
      "count": 32,
      "max": [
        0.7424010038375854,
        -0.38567131757736206
      ],
      "min": [
        -0.30657047033309937,
        -0.9689657092094421
      ],
      "type": "VEC2"
    },
    {
      "bufferView": 0,
      "byteOffset": 13704,
      "componentType": 5125,
      "count": 84,
      "type": "SCALAR"
    }
  ],
  "asset": {
    "extras": {
      "author": "Edouard Blanc (https://sketchfab.com/raiden1986)",
      "license": "CC-BY-4.0 (http://creativecommons.org/licenses/by/4.0/)",
      "source": "https://sketchfab.com/3d-models/button-9dbf2a60660a4f4a853349fccbd53dad",
      "title": "Button"
    },
    "generator": "Sketchfab-12.67.0",
    "version": "2.0"
  },
  "bufferViews": [
    {
      "buffer": 0,
      "byteLength": 14040,
      "name": "floatBufferViews",
      "target": 34963
    },
    {
      "buffer": 0,
      "byteLength": 13952,
      "byteOffset": 14040,
      "byteStride": 8,
      "name": "floatBufferViews",
      "target": 34962
    },
    {
      "buffer": 0,
      "byteLength": 21312,
      "byteOffset": 27992,
      "byteStride": 12,
      "name": "floatBufferViews",
      "target": 34962
    }
  ],
  "buffers": [
    {
      "byteLength": 49304,
      "uri": "scene.bin"
    }
  ],
  "extensionsUsed": [
    "KHR_materials_transmission"
  ],
  "images": [
    {
      "uri": "textures/08_-_Default_baseColor.png"
    },
    {
      "uri": "textures/08_-_Default_metallicRoughness.png"
    }
  ],
  "materials": [
    {
      "doubleSided": true,
      "name": "08_-_Default",
      "pbrMetallicRoughness": {
        "baseColorTexture": {
          "index": 0
        },
        "metallicFactor": 0.378,
        "metallicRoughnessTexture": {
          "index": 1
        },
        "roughnessFactor": 0.9655208587646484
      }
    },
    {
      "alphaMode": "BLEND",
      "doubleSided": true,
      "extensions": {
        "KHR_materials_transmission": {
          "transmissionFactor": 1.0
        }
      },
      "name": "11_-_Default",
      "pbrMetallicRoughness": {
        "baseColorFactor": [
          0.588235,
          0.588235,
          0.588235,
          0.25
        ],
        "metallicFactor": 0.0,
        "roughnessFactor": 0.27759797311607765
      }
    }
  ],
  "meshes": [
    {
      "name": "Sphere100_08 - Default_0",
      "primitives": [
        {
          "attributes": {
            "NORMAL": 1,
            "POSITION": 0,
            "TEXCOORD_0": 2,
            "TEXCOORD_1": 3
          },
          "indices": 4,
          "material": 0,
          "mode": 4
        }
      ]
    },
    {
      "name": "Sphere100_11 - Default_0",
      "primitives": [
        {
          "attributes": {
            "NORMAL": 6,
            "POSITION": 5,
            "TEXCOORD_0": 7
          },
          "indices": 8,
          "material": 1,
          "mode": 4
        }
      ]
    }
  ],
  "nodes": [
    {
      "children": [
        1
      ],
      "matrix": [
        0.9997668862342834,
        -7.829665680411495e-18,
        0.02158980444073677,
        0.0,
        0.02018500119447708,
        0.3548266589641573,
        -0.9347141981124877,
        0.0,
        -0.0076606385409832,
        0.9349321126937865,
        0.35474395751953147,
        0.0,
        -0.3992197811603546,
        -7.026158332824707,
        -1.336931705474855,
        1.0
      ],
      "name": "Sketchfab_model"
    },
    {
      "children": [
        2
      ],
      "matrix": [
        1.0,
        0.0,
        0.0,
        0.0,
        0.0,
        0.0,
        1.0,
        0.0,
        0.0,
        -1.0,
        0.0,
        0.0,
        0.0,
        0.0,
        0.0,
        1.0
      ],
      "name": "Button.fbx"
    },
    {
      "children": [
        3
      ],
      "name": "RootNode"
    },
    {
      "children": [
        4
      ],
      "matrix": [
        1.0,
        0.0,
        0.0,
        0.0,
        0.0,
        2.220446049250313e-16,
        -1.0,
        0.0,
        0.0,
        1.0,
        2.220446049250313e-16,
        0.0,
        0.03564453125,
        0.0,
        -19.795166015625,
        1.0
      ],
      "name": "Sphere100"
    },
    {
      "children": [
        5,
        6
      ],
      "matrix": [
        0.6327111721038818,
        0.0,
        0.0,
        0.0,
        -0.0,
        0.6327111721038774,
        7.542505019776753e-08,
        0.0,
        0.0,
        -5.312217217059718e-08,
        0.44562107324599903,
        0.0,
        0.0,
        -3.7029619370798628e-09,
        0.0847138911485672,
        1.0
      ],
      "name": "Object_4"
    },
    {
      "mesh": 0,
      "name": "Sphere100_08 - Default_0"
    },
    {
      "mesh": 1,
      "name": "Sphere100_11 - Default_0"
    }
  ],
  "samplers": [
    {
      "magFilter": 9729,
      "minFilter": 9987,
      "wrapS": 10497,
      "wrapT": 10497
    }
  ],
  "scene": 0,
  "scenes": [
    {
      "name": "Sketchfab_Scene",
      "nodes": [
        0
      ]
    }
  ],
  "textures": [
    {
      "sampler": 0,
      "source": 0
    },
    {
      "sampler": 0,
      "source": 1
    }
  ]
}
